<svg width="25" height="25" viewBox="0 0 25 25" fill="none" xmlns="http://www.w3.org/2000/svg">
<g clip-path="url(#clip0_5_5729)">
<path d="M24.0467 0.75H21.9165C21.73 0.75 21.5512 0.824063 21.4193 0.955969L7.7836 14.5917L10.9082 17.7163L24.5439 4.08052C24.6758 3.94866 24.7499 3.76983 24.7499 3.58331V1.45312C24.7499 1.06481 24.4351 0.75 24.0467 0.75V0.75Z" fill="#1A1C1E"/>
<path d="M3.55259 18.8294C3.13531 19.2466 2.91336 19.792 2.89255 20.3421C2.34917 20.3573 1.81034 20.5717 1.39559 20.9864C0.53464 21.8473 0.53464 23.2432 1.39559 24.1042C2.25655 24.9652 3.65248 24.9652 4.51348 24.1042C4.9257 23.692 5.14001 23.1571 5.1575 22.6171C5.69764 22.5996 6.23258 22.3851 6.64484 21.9729L7.92172 20.696L4.80383 17.5781L3.55259 18.8294Z" fill="#1A1C1E"/>
<path d="M13.7416 16.8687L16.8657 13.7445L17.7129 14.5918L14.5888 17.7159L13.7416 16.8687Z" fill="#1A1C1E"/>
<path d="M8.63105 11.7556L11.7556 8.631L4.08056 0.955969C3.9487 0.824063 3.76988 0.75 3.58336 0.75H1.45312C1.06481 0.75 0.75 1.06481 0.75 1.45312V3.58331C0.75 3.76983 0.824063 3.94866 0.955969 4.08047L8.63105 11.7556Z" fill="#1A1C1E"/>
<path d="M22.6074 20.3422C22.5865 19.7921 22.3645 19.2466 21.9473 18.8294L20.696 17.5781L17.5781 20.696L18.855 21.9729C19.2673 22.3851 19.8023 22.5996 20.3424 22.6171C20.3599 23.1571 20.5742 23.692 20.9864 24.1042C21.8474 24.9652 23.2433 24.9652 24.1043 24.1042C24.9653 23.2433 24.9653 21.8474 24.1043 20.9864C23.6896 20.5717 23.1507 20.3573 22.6074 20.3422Z" fill="#1A1C1E"/>
<path d="M21.5321 13.7592C21.2575 13.4846 20.8123 13.4846 20.5378 13.7592L13.7592 20.5376C13.4846 20.8122 13.4846 21.2575 13.7592 21.532C14.0338 21.8065 14.479 21.8065 14.7536 21.532L21.5321 14.7535C21.8067 14.479 21.8067 14.0337 21.5321 13.7592Z" fill="#1A1C1E"/>
<path d="M4.96251 13.7592C4.68796 13.4846 4.24275 13.4846 3.96815 13.7592C3.69356 14.0337 3.69356 14.4789 3.96815 14.7535L10.7467 21.532C11.0212 21.8065 11.4665 21.8065 11.7411 21.532C12.0157 21.2575 12.0157 20.8122 11.7411 20.5376L4.96251 13.7592Z" fill="#1A1C1E"/>
</g>
<defs>
<clipPath id="clip0_5_5729">
<rect width="24" height="24" fill="white" transform="translate(0.75 0.75)"/>
</clipPath>
</defs>
</svg>
