<svg width="25" height="25" viewBox="0 0 25 25" fill="none" xmlns="http://www.w3.org/2000/svg">
<g clip-path="url(#clip0_5_5699)">
<path d="M14.2904 17.388C13.8633 17.65 13.3162 17.7943 12.75 17.7943C12.1839 17.7943 11.6368 17.65 11.2097 17.388L4.23578 13.1109C4.23578 13.1109 3.60632 12.725 3.60632 13.5991C3.60632 14.5916 3.60632 17.5693 3.60632 17.5693C3.60632 17.609 3.60632 17.8083 3.60632 17.8701C3.60632 20.12 7.70005 22.5455 12.7499 22.5455C17.7997 22.5455 21.8934 20.12 21.8934 17.8701C21.8934 17.8083 21.8934 17.609 21.8934 17.5693C21.8934 17.5693 21.8934 14.4111 21.8934 13.3583C21.8934 12.6567 21.4459 12.9995 21.4459 12.9995L14.2904 17.388Z" fill="#1A1C1E"/>
<path d="M24.3481 9.70874C24.884 9.38011 24.884 8.84233 24.3481 8.51364L13.7243 3.20106C13.1884 2.87243 12.3115 2.87243 11.7757 3.20106L1.15189 8.51364C0.616035 8.84227 0.616035 9.38005 1.15189 9.70874L11.7757 16.2244C12.3115 16.553 13.1884 16.553 13.7243 16.2244" fill="#1A1C1E"/>
<path d="M23.9085 19.3666C23.9085 17.5676 23.9085 12.1705 23.9085 12.1705C23.9085 12.1705 23.9135 11.8297 23.7113 11.9422C23.549 12.0325 23.1514 12.2542 23.0113 12.3761C22.8495 12.5166 22.886 12.8322 22.886 12.8322C22.886 12.8322 22.886 17.733 22.886 19.3666C22.886 19.4593 22.8063 19.5036 22.7682 19.526C22.401 19.7419 22.1541 20.1404 22.1541 20.5973C22.1541 21.2839 22.7106 21.8405 23.3973 21.8405C24.0839 21.8405 24.6404 21.2839 24.6404 20.5973C24.6404 20.1386 24.3917 19.7389 24.0221 19.5235C23.9853 19.5021 23.9085 19.4593 23.9085 19.3666Z" fill="#1A1C1E"/>
</g>
<defs>
<clipPath id="clip0_5_5699">
<rect width="24" height="24" fill="white" transform="translate(0.75 0.75)"/>
</clipPath>
</defs>
</svg>
