<svg width="25" height="25" viewBox="0 0 25 25" fill="none" xmlns="http://www.w3.org/2000/svg">
<g clip-path="url(#clip0_5_5755)">
<path d="M12.75 4.99219C14.2755 4.99219 15.7263 5.31717 17.0377 5.90072C17.7808 5.39208 18.2695 4.53778 18.2695 3.57127C18.2695 2.01562 17.0039 0.75 15.4482 0.75H10.0518C8.49609 0.75 7.23047 2.01562 7.23047 3.57131C7.23047 4.53783 7.71919 5.39213 8.4623 5.90077C9.77372 5.31722 11.2245 4.99219 12.75 4.99219ZM8.63672 3.57131C8.63672 2.79103 9.2715 2.15625 10.0518 2.15625H15.4482C16.2285 2.15625 16.8633 2.79103 16.8633 3.57131C16.8633 4.35159 16.2285 4.98637 15.4482 4.98637H14.8652V4.27734C14.8652 3.88903 14.5504 3.57422 14.1621 3.57422H11.3379C10.9496 3.57422 10.6348 3.88903 10.6348 4.27734V4.98633H10.0518C9.2715 4.98633 8.63672 4.35155 8.63672 3.57131Z" fill="#1A1C1E"/>
<path d="M14.2295 16.0592L15.499 12.8254L12.2652 14.0949L14.2295 16.0592Z" fill="#1A1C1E"/>
<path d="M12.75 6.39844C7.69045 6.39844 3.57422 10.5147 3.57422 15.5742C3.57422 20.6338 7.69045 24.75 12.75 24.75C17.8095 24.75 21.9258 20.6338 21.9258 15.5742C21.9258 10.5147 17.8095 6.39844 12.75 6.39844ZM17.3969 11.8388L15.1459 17.5726C15.0745 17.7547 14.9304 17.8987 14.7484 17.9701L9.01462 20.2211C8.93123 20.2538 8.84414 20.2697 8.7578 20.2697C8.57466 20.2697 8.39484 20.1982 8.2605 20.0637C8.06278 19.866 8.001 19.5699 8.10319 19.3096L10.3541 13.5758C10.4256 13.3938 10.5697 13.2497 10.7517 13.1783L16.4854 10.9274C16.7458 10.8251 17.0418 10.887 17.2395 11.0847C17.4373 11.2824 17.499 11.5785 17.3969 11.8388Z" fill="#1A1C1E"/>
<path d="M11.2708 15.0891L10.0013 18.3229L13.2351 17.0534L11.2708 15.0891Z" fill="#1A1C1E"/>
</g>
<defs>
<clipPath id="clip0_5_5755">
<rect width="24" height="24" fill="white" transform="translate(0.75 0.75)"/>
</clipPath>
</defs>
</svg>
