<svg width="25" height="25" viewBox="0 0 25 25" fill="none" xmlns="http://www.w3.org/2000/svg">
<g clip-path="url(#clip0_5_5692)">
<path d="M21.8929 12.1786H20.1786V7.60714C20.1786 6.3443 19.1558 5.32141 17.8929 5.32141H13.3214V3.60713C13.3214 2.02998 12.0414 0.75 10.4643 0.75C8.88713 0.75 7.60714 2.02998 7.60714 3.60713V5.32141H3.03573C1.77289 5.32141 0.761464 6.34425 0.761464 7.60714L0.755732 11.95H2.46429C4.16716 11.95 5.55 13.3329 5.55 15.0357C5.55 16.7386 4.16716 18.1214 2.46429 18.1214H0.755732L0.75 22.4643C0.75 23.7272 1.77284 24.75 3.03573 24.75H7.37861V23.0357C7.37861 21.3328 8.76145 19.95 10.4643 19.95C12.1672 19.95 13.55 21.3328 13.55 23.0357V24.75H17.8929C19.1557 24.75 20.1786 23.7272 20.1786 22.4643V17.8929H21.8929C23.47 17.8929 24.75 16.6129 24.75 15.0357C24.75 13.4586 23.47 12.1786 21.8929 12.1786Z" fill="#1A1C1E"/>
</g>
<defs>
<clipPath id="clip0_5_5692">
<rect width="24" height="24" fill="white" transform="translate(0.75 0.75)"/>
</clipPath>
</defs>
</svg>
