<svg width="25" height="25" viewBox="0 0 25 25" fill="none" xmlns="http://www.w3.org/2000/svg">
<g clip-path="url(#clip0_5_5741)">
<path d="M13.7272 2.68865C13.9987 2.32888 13.955 1.56578 13.9164 0.892624C13.9149 0.863608 13.9133 0.835231 13.9117 0.806411C13.5312 0.77008 13.146 0.75 12.7562 0.75C11.2625 0.75 9.8332 1.02518 8.51404 1.52405C9.45506 1.97627 10.9117 2.75464 12.5308 3.90471C13.0832 3.42931 13.4998 2.99044 13.7272 2.68865Z" fill="#1A1C1E"/>
<path d="M19.8075 9.53591C19.2161 9.60273 18.7172 9.69979 18.2906 9.83593C20.3299 13.3965 21.1251 17.8948 21.3196 21.1536C23.3399 19.0951 24.6229 16.3123 24.7443 13.2299C23.3522 11.5188 21.5081 9.34301 19.8075 9.53591Z" fill="#1A1C1E"/>
<path d="M7.68364 6.46273C9.1165 6.16457 10.4627 5.4434 11.536 4.68216C9.29683 3.13996 7.42922 2.3396 7.05771 2.18726C4.73464 3.44308 2.87567 5.44398 1.79419 7.86839C3.1999 7.3083 4.72232 7.02335 6.21763 6.74571C6.70138 6.65587 7.20142 6.56303 7.68364 6.46273Z" fill="#1A1C1E"/>
<path d="M15.9781 6.8114C16.106 6.93993 16.2336 7.07067 16.3603 7.20387C16.8277 7.69458 17.2518 8.2313 17.6408 8.79914C18.2072 8.58528 18.874 8.43362 19.6722 8.34339C21.5529 8.13065 23.2252 9.62047 24.6606 11.2607C24.3528 8.7742 23.2864 6.52379 21.6974 4.74902C20.8301 4.85355 19.8632 5.03064 18.8776 5.32472C18.2311 5.51782 17.2015 6.04246 15.9781 6.8114Z" fill="#1A1C1E"/>
<path d="M14.3993 13.0086C14.8915 11.3415 15.4616 10.1398 16.5661 9.35979C16.2346 8.8839 15.8779 8.43728 15.4915 8.03155C15.3127 7.84381 15.1319 7.6625 14.9504 7.48438C10.5188 10.5008 4.44847 16.0418 3.89648 20.8427C5.73905 22.8587 8.26072 24.2412 11.0994 24.6334C12.1331 22.5756 13.1059 18.3922 13.6841 15.9041C13.962 14.7091 14.2018 13.6772 14.3993 13.0086Z" fill="#1A1C1E"/>
<path d="M9.37453 10.3652C10.9197 8.94132 12.5514 7.66454 14.0439 6.63838C13.5464 6.19824 13.0474 5.79251 12.5575 5.42041C11.3179 6.35225 9.69488 7.27005 7.92821 7.63748C7.43347 7.74044 6.92685 7.83455 6.43707 7.92548C4.54992 8.27593 2.73838 8.61533 1.21493 9.46532C0.918243 10.5096 0.755981 11.6107 0.755981 12.7501C0.755981 15.299 1.5532 17.6607 2.9083 19.6041C3.78618 16.1282 6.79733 12.74 9.37453 10.3652Z" fill="#1A1C1E"/>
<path d="M15.0777 5.95283C16.5053 5.04269 17.7361 4.41338 18.5347 4.17502C19.2518 3.96086 19.9552 3.80489 20.6213 3.69113C19.082 2.35351 17.2004 1.40017 15.1233 0.984619C15.1693 1.82269 15.1894 2.74279 14.6852 3.41128C14.4457 3.72874 14.0405 4.16412 13.5132 4.63647C14.0296 5.03842 14.5544 5.47675 15.0777 5.95283Z" fill="#1A1C1E"/>
<path d="M15.5498 13.3485C15.3624 13.9832 15.1261 14.9994 14.8526 16.1758C14.0453 19.6496 13.2728 22.758 12.3706 24.7402C12.4987 24.7443 12.6267 24.75 12.7558 24.75C15.5525 24.75 18.1234 23.7907 20.1636 22.1869C20.0831 18.7767 19.2655 13.953 17.2062 10.3723C16.4075 10.9659 15.9776 11.8998 15.5498 13.3485Z" fill="#1A1C1E"/>
</g>
<defs>
<clipPath id="clip0_5_5741">
<rect width="24" height="24" fill="white" transform="translate(0.75 0.75)"/>
</clipPath>
</defs>
</svg>
