<svg width="24" height="24" viewBox="0 0 24 24" fill="none" xmlns="http://www.w3.org/2000/svg">
<g clip-path="url(#clip0_428_7001)">
<path d="M6.61678 13.7138C6.30161 9.61545 6.65996 6.58374 7.71227 4.44538C7.8806 4.10338 8.06095 3.79752 8.24905 3.52295C7.36403 4.17532 6.4157 5.16274 5.5983 6.65851C4.95739 7.83126 4.41483 10.0808 4.14689 12.6762C3.97773 14.3142 3.9461 16.2278 4.07157 17.2264L4.1491 17.8434H5.99875C6.01186 17.8141 6.02507 17.7856 6.03809 17.7553C6.38234 16.955 6.76217 15.6043 6.61678 13.7138Z" fill="black"/>
<path d="M14.279 0C14.2278 0.00197361 13.8635 0.0217098 13.4097 0.18707C13.0946 0.365119 12.835 0.59246 12.6337 0.870082C12.2517 1.39718 12.2148 1.92601 12.2146 1.93109L12.056 2.38352L11.6372 2.55555C10.4535 3.04176 7.30935 4.33331 8.02239 13.6057C8.16181 15.4187 7.8832 16.8331 7.50793 17.8692H17.3356C17.2903 17.3884 17.1538 16.8041 16.8303 16.1007C16.3471 15.0502 14.1945 10.5405 13.9235 9.82959C14.0866 9.8294 14.2499 9.82005 14.4128 9.80144C15.148 9.71752 15.4957 9.58209 15.7496 9.48327C16.0301 9.37392 16.1462 9.32876 16.9881 9.53453L19.1649 10.0856C19.2542 10.1075 19.3422 10.1176 19.4289 10.1176C20.4226 10.1174 21.2342 8.78771 21.4221 8.45398C21.649 8.11452 21.7297 7.70819 21.6493 7.30684C21.5673 6.89774 21.3288 6.54822 20.9778 6.3228C20.6689 6.12441 17.2059 3.29608 15.7086 2.45579C15.3684 2.26486 15.0087 2.12399 14.635 2.03513V0L14.279 0ZM14.0474 5.66465C14.0304 5.28398 14.3836 4.95979 14.7523 4.95979C15.1474 4.95979 15.44 5.28276 15.4571 5.66465C15.4742 6.04532 15.121 6.36951 14.7523 6.36951C14.3571 6.36951 14.0645 6.04654 14.0474 5.66465Z" fill="black"/>
<path d="M4.99729 19.2791C4.49919 19.2791 4.02359 19.5164 3.74761 19.931C3.59038 20.1673 3.49866 20.4507 3.49866 20.7552V21.1834H20.1727V20.7552C20.1727 20.4507 20.081 20.1673 19.9237 19.931C19.6478 19.5164 19.1722 19.2791 18.6741 19.2791H4.99729Z" fill="black"/>
<path d="M2.3208 22.593H21.3506V24H2.3208V22.593Z" fill="black"/>
</g>
<defs>
<clipPath id="clip0_428_7001">
<rect width="24" height="24" fill="white"/>
</clipPath>
</defs>
</svg>
